<?xml version="1.0" encoding="UTF-8"?>
<svg version="1.1" xmlns="http://www.w3.org/2000/svg" width="512" height="512">
<path d="M0 0 C1.04388885 0.36228195 2.08777771 0.7245639 3.16329956 1.0978241 C6.36679364 2.21344121 9.56243499 3.34965762 12.7578125 4.48828125 C14.61446332 5.13880553 16.47154022 5.78811543 18.32910156 6.43603516 C22.88882295 8.03141565 27.4412023 9.64667899 31.99121094 11.26953125 C37.16422347 13.11441515 42.34015354 14.95109052 47.515625 16.7890625 C48.59523499 17.17268951 49.67484497 17.55631653 50.78717041 17.9515686 C63.10090885 22.3250264 75.42944798 26.65626684 87.7578125 30.98828125 C106.70012019 37.64619771 125.63293633 44.33022802 144.55493164 51.0456543 C155.50896166 54.93145659 166.47101731 58.79342108 177.44140625 62.6328125 C179.92384392 63.5025591 182.40626589 64.37235048 184.88867188 65.2421875 C189.66070217 66.91421828 194.43437836 68.58143473 199.20898438 70.24609375 C201.3906916 71.01022654 203.57233543 71.77454036 205.75390625 72.5390625 C207.22723671 73.05047539 207.22723671 73.05047539 208.73033142 73.57221985 C224.94589353 79.2704028 224.94589353 79.2704028 227.7578125 83.48828125 C228.2546416 87.93084395 228.17441548 92.39596217 228.1953125 96.86328125 C228.22818359 98.095625 228.26105469 99.32796875 228.29492188 100.59765625 C228.30201172 101.78617187 228.30910156 102.9746875 228.31640625 104.19921875 C228.32986084 105.28509277 228.34331543 106.3709668 228.35717773 107.48974609 C227.52869888 111.63450264 226.09795497 112.92140722 222.7578125 115.48828125 C219.84679396 116.92347742 216.84786333 117.96193716 213.7734375 118.9921875 C212.87095276 119.30776108 211.96846802 119.62333466 211.03863525 119.94847107 C208.03285018 120.99604316 205.0204692 122.02315545 202.0078125 123.05078125 C199.86603083 123.79346532 197.72476524 124.53763914 195.58398438 125.28320312 C191.01732837 126.87164351 186.4481201 128.45242161 181.87695312 130.02783203 C171.18902009 133.7154589 160.52568331 137.47321519 149.85940552 141.22290039 C146.23228453 142.49725023 142.60442986 143.76948875 138.97631836 145.04101562 C122.86116658 150.68917565 106.75878157 156.37242748 90.66506958 162.08135986 C79.0677949 166.19504025 67.46712655 170.29877523 55.859375 174.3828125 C54.68735535 174.79536789 53.51533569 175.20792328 52.30780029 175.63298035 C46.47038527 177.68693489 40.63135894 179.73609221 34.7890625 181.77612305 C25.10056316 185.16380008 15.43045298 188.57114866 5.84375 192.23828125 C3.72824286 193.03572591 1.61211257 193.83149671 -0.50411987 194.62701416 C-2.34572029 195.33117524 -4.17438679 196.0688871 -6.00219727 196.80810547 C-13.96773819 199.80429094 -18.39962826 199.50683064 -26.2421875 196.48828125 C-27.73625488 195.96606421 -29.2322932 195.44946857 -30.72973633 194.93701172 C-35.33023313 193.35425681 -39.9130746 191.72537388 -44.4932251 190.08477783 C-48.73406349 188.56587471 -52.97815822 187.05616497 -57.2220459 185.54580688 C-59.46935498 184.74593563 -61.71650429 183.94561537 -63.96350098 183.14486694 C-76.25269872 178.7667718 -88.55937927 174.43871907 -100.8671875 170.11328125 C-103.13275003 169.31662279 -105.39829355 168.51991026 -107.66381836 167.72314453 C-114.52307071 165.31094294 -121.38260296 162.89953801 -128.2421875 160.48828125 C-191.21071496 138.35380846 -191.21071496 138.35380846 -214.07104492 130.22509766 C-215.51029579 129.71334488 -215.51029579 129.71334488 -216.97862244 129.19125366 C-218.84312658 128.52828004 -220.7075989 127.86521692 -222.57203674 127.20205688 C-227.26772029 125.53454242 -231.96849228 123.88434944 -236.68177795 122.26724243 C-238.5213303 121.63569585 -240.35874547 120.99793433 -242.19604492 120.35986328 C-244.24684955 119.64854607 -246.30134245 118.9477054 -248.3605957 118.26123047 C-257.36016041 115.11361189 -257.36016041 115.11361189 -260.2421875 110.48828125 C-260.90964656 106.13726562 -260.84814036 101.880509 -260.7421875 97.48828125 C-260.74605469 95.72484375 -260.74605469 95.72484375 -260.75 93.92578125 C-260.63892235 84.15094848 -260.63892235 84.15094848 -257.2421875 79.48828125 C-254.92658997 78.2041626 -254.92658997 78.2041626 -252.15551758 77.26269531 C-251.10752487 76.89683319 -250.05953217 76.53097107 -248.9797821 76.15402222 C-247.26309074 75.58471481 -247.26309074 75.58471481 -245.51171875 75.00390625 C-243.67690582 74.37113758 -241.84209341 73.73836741 -240.00730228 73.10553551 C-238.0476326 72.43347335 -236.08517877 71.77023444 -234.12164307 71.10955811 C-230.01237848 69.72673569 -225.91159844 68.31990668 -221.81201172 66.90869141 C-217.63154081 65.47081728 -213.45061131 64.03438249 -209.26672363 62.60647583 C-198.05859563 58.78110367 -186.88697631 54.85860117 -175.73104858 50.88342285 C-170.89534818 49.16088848 -166.05701199 47.44579228 -161.21875 45.73046875 C-160.2526329 45.38781982 -159.28651581 45.0451709 -158.29112244 44.69213867 C-145.14702597 40.03285707 -131.98873304 35.41385121 -118.83221436 30.78979492 C-104.44594574 25.7330573 -90.06539455 20.66069134 -75.69384766 15.56225586 C-71.62156096 14.11764496 -67.54835325 12.67568719 -63.47412109 11.23657227 C-61.5556526 10.55878896 -59.63719528 9.88097402 -57.71875 9.203125 C-56.80479462 8.88024002 -55.89083923 8.55735504 -54.94918823 8.22468567 C-50.21621146 6.54995871 -45.48988346 4.85904154 -40.7734375 3.13830566 C-38.90902399 2.45915654 -37.04196874 1.78727284 -35.17480469 1.11572266 C-33.08487623 0.36385439 -30.9989563 -0.39933812 -28.91894531 -1.17822266 C-28.02788086 -1.49581543 -27.13681641 -1.8134082 -26.21875 -2.140625 C-25.48736816 -2.4094751 -24.75598633 -2.6783252 -24.00244141 -2.95532227 C-15.33470843 -4.70251521 -8.18068156 -2.94731048 0 0 Z " fill="darkolivegreen" transform="translate(272.2421875,75.51171875)"/>
<path d="M0 0 C16.62103629 5.49220072 33.21029682 11.0451859 49.69537354 16.9354248 C54.74003482 18.73785019 59.78832602 20.53007575 64.8359375 22.32421875 C65.88997772 22.69918488 66.94401794 23.074151 68.02999878 23.46047974 C82.20959791 28.50212387 96.40987426 33.48511699 110.6081543 38.47384644 C112.84113635 39.25846678 115.07398943 40.04345433 117.30670166 40.82884216 C119.4094974 41.56737865 121.51311254 42.30358702 123.61761475 43.0372467 C127.88378973 44.52797329 132.13518098 46.02970337 136.33886719 47.68945312 C137.54446289 48.15802734 138.75005859 48.62660156 139.9921875 49.109375 C140.96269043 49.50608398 141.93319336 49.90279297 142.93310547 50.31152344 C151.4078322 52.21398558 159.41263559 48.74681556 167.31640625 45.90625 C168.50537003 45.48762192 169.6943338 45.06899384 170.91932678 44.63768005 C174.13592134 43.50308172 177.34928451 42.36008997 180.56147003 41.21311569 C183.93156755 40.01209949 187.30557956 38.8221819 190.67919922 37.63110352 C196.83999798 35.45426475 202.99751316 33.26830842 209.15363693 31.07828808 C215.57996249 28.79259227 222.01033026 26.51838717 228.44140625 24.24609375 C236.35188758 21.44988768 244.260916 18.6496371 252.16796875 15.84375 C253.07943665 15.52031113 253.99090454 15.19687225 254.92999268 14.8636322 C256.73146611 14.22435633 258.5329391 13.58507921 260.33441162 12.94580078 C267.11513767 10.53987193 273.89651918 8.13581064 280.67962646 5.73660278 C282.16913928 5.20943693 283.65844261 4.68167876 285.14752197 4.15328979 C287.14862969 3.44322024 289.15039295 2.73503213 291.15234375 2.02734375 C292.26601318 1.63281006 293.37968262 1.23827637 294.52709961 0.83178711 C297 0 297 0 298 0 C298.07019413 8.55519465 298.12315727 17.11026457 298.15543652 25.66567802 C298.17094614 29.64034227 298.19190713 33.61480636 298.22631836 37.58935547 C298.51446796 71.80588446 298.51446796 71.80588446 295 86 C294.77014404 86.93263672 294.54028809 87.86527344 294.3034668 88.82617188 C293.69838771 91.0280803 293.01650362 93.16228063 292.25 95.3125 C291.99395996 96.05048828 291.73791992 96.78847656 291.47412109 97.54882812 C287.49759218 108.60353056 281.8460195 118.2233395 274 127 C273.27296875 127.82113281 272.5459375 128.64226562 271.796875 129.48828125 C254.15732794 148.26680569 229.26840109 157.41245781 204.5 162.25 C203.73155762 162.40106201 202.96311523 162.55212402 202.17138672 162.70776367 C185.76295874 165.67938194 169.36753736 166.34849102 152.72314453 166.31567383 C149.39972775 166.31252344 146.07721337 166.33604369 142.75390625 166.36132812 C101.16994287 166.48452906 57.54898569 159.39810049 26.3125 129.8125 C15.58814515 118.74768944 8.79298393 105.32802404 4.3125 90.6875 C4.10979492 90.03676514 3.90708984 89.38603027 3.69824219 88.71557617 C0.18634997 76.61010129 -0.2885034 64.27346293 -0.1953125 51.7578125 C-0.19157005 50.25324697 -0.18872893 48.74867897 -0.18673706 47.24411011 C-0.17919738 43.33482822 -0.15963536 39.42570127 -0.1373291 35.51647949 C-0.11665904 31.50710138 -0.10769069 27.49769759 -0.09765625 23.48828125 C-0.07637754 15.65878447 -0.0423627 7.82941416 0 0 Z " fill="darkolivegreen" transform="translate(107,241)"/>
<path d="M0 0 C6.6 0 13.2 0 20 0 C23.93277395 18.24178996 27.82074941 36.49195041 31.57958984 54.77050781 C32.11669983 57.37329863 32.65687853 59.97520536 33.20263672 62.57617188 C34.00816489 66.41570602 34.79755501 70.25846946 35.5859375 74.1015625 C35.82960052 75.2526651 36.07326355 76.4037677 36.3243103 77.5897522 C39.51689143 93.34567064 39.51689143 93.34567064 36.625 100.3125 C30.17105741 106.92010789 22.04481047 109.10175167 13.09399414 109.29199219 C2.84611165 109.3711046 -5.26997511 108.74205707 -14.0625 103 C-17.20601377 99.75508256 -18.29876139 96.96036257 -18.35522461 92.46118164 C-18.18075849 83.6997989 -16.09390574 75.16745598 -14.31640625 66.62109375 C-13.93680268 64.75847991 -13.55806845 62.89568871 -13.18016052 61.0327301 C-12.39049823 57.15091348 -11.59396869 53.27059789 -10.79174805 49.39135742 C-9.76231733 44.41314919 -8.74481998 39.43260059 -7.73170567 34.45104885 C-6.76387676 29.69442356 -5.79045218 24.93894917 -4.81640625 20.18359375 C-4.63083223 19.27546873 -4.44525822 18.36734371 -4.25406075 17.43169975 C-3.73048359 14.87496134 -3.20295913 12.31907235 -2.67407227 9.76342773 C-2.51870499 9.00243774 -2.36333771 8.24144775 -2.20326233 7.45739746 C-1.11487115 2.2297423 -1.11487115 2.2297423 0 0 Z " fill="darkolivegreen" transform="translate(42,331)"/>
<path d="M0 0 C18 6 18 6 20 7 C20 27.46 20 47.92 20 69 C13.4 69 6.8 69 0 69 C0 46.23 0 23.46 0 0 Z " fill="ol00000" transform="translate(42,218)"/>
<path d="M0 0 C3.23955978 2.7636055 5.74809534 6.07723403 6.30859375 10.35546875 C6.53693632 15.37208572 6.62658093 19.03835024 3.375 23.0625 C-0.02806037 26.37809853 -3.12282871 28.01702468 -7.98046875 27.98828125 C-12.2767373 27.62555689 -15.66433141 26.87238129 -19 24 C-21.90542921 20.06749231 -23.36045509 16.35682964 -23.125 11.4375 C-22.26174121 6.44786419 -19.92659158 3.13772781 -16 0 C-10.52688563 -2.58165772 -5.49792529 -2.38861174 0 0 Z " fill="darkolivegreen" transform="translate(60,295)"/>
</svg>
