<?xml version="1.0" encoding="UTF-8"?>
<svg version="1.1" xmlns="http://www.w3.org/2000/svg" width="512" height="512">
<path d="M0 0 C0 0.66 0 1.32 0 2 C-0.81452637 2.35191406 -1.62905273 2.70382813 -2.46826172 3.06640625 C-4.18166748 3.80697266 -4.18166748 3.80697266 -5.9296875 4.5625 C-6.54725922 4.82935608 -7.16483093 5.09621216 -7.80111694 5.37115479 C-11.21147564 6.84554456 -14.62023832 8.32347957 -18.02636719 9.80761719 C-19.40556152 10.40828909 -20.78479314 11.00887539 -22.1640625 11.609375 C-22.84569458 11.9061615 -23.52732666 12.202948 -24.22961426 12.50872803 C-28.02045282 14.15481945 -31.8229303 15.76372764 -35.6484375 17.328125 C-47.54259441 22.24135101 -55.43572423 27.76639451 -62.59765625 38.77734375 C-63.47997121 40.11776325 -64.36229578 41.45817644 -65.24462891 42.79858398 C-65.69759338 43.49007538 -66.15055786 44.18156677 -66.61724854 44.89401245 C-68.43167823 47.65746375 -70.2640194 50.40881087 -72.09616089 53.16053772 C-73.92408421 55.90935144 -75.74335487 58.6638337 -77.56176758 61.41894531 C-78.48932393 62.82204919 -79.41906078 64.22371373 -80.35083008 65.62402344 C-81.72755214 67.69375842 -83.09688912 69.76821311 -84.46484375 71.84375 C-84.87733871 72.46052612 -85.28983368 73.07730225 -85.71482849 73.71276855 C-90.73078013 81.36368831 -93.60944712 88.70593149 -93 98 C-90.82724443 108.06497068 -86.35373264 114.95125159 -78 121 C-68.36673427 126.25163255 -58.5772888 127.50278368 -47.73046875 125.3515625 C-35.07154628 121.54901069 -28.30971431 113.63927005 -21 103 C-20.40723267 101.87247314 -20.40723267 101.87247314 -19.80249023 100.72216797 C-17.78646248 97.12198814 -16.25325675 94.59062764 -12.44604492 92.79638672 C-9.45128103 91.96229927 -6.50499462 91.37691857 -3.4375 90.875 C-2.40947266 90.66875 -1.38144531 90.4625 -0.32226562 90.25 C8.33524359 88.61163792 8.33524359 88.61163792 13 90 C14.703125 92.15234375 14.703125 92.15234375 16.25 94.9375 C27.32067902 113.28590592 45.0141407 124.48262646 65.5 129.875 C75.29104149 132.01432944 86.05479243 133.43284834 95.97265625 131.38671875 C100.76182581 130.41834471 104.32505321 130.34933502 108.55395508 132.91918945 C109.88486569 133.80374945 111.20618467 134.70284717 112.51953125 135.61328125 C114.03501901 136.62890823 115.55056553 137.64444753 117.06616211 138.65991211 C117.86682098 139.20340302 118.66747986 139.74689392 119.49240112 140.30685425 C122.93325352 142.63013835 126.40804122 144.90004239 129.88282776 147.1721344 C133.60666778 149.60825006 137.32189634 152.05735514 141.03759766 154.50585938 C143.86377909 156.36760822 146.69162908 158.22680376 149.51953125 160.0859375 C154.12361789 163.11560801 158.71869736 166.15852948 163.30749512 169.21130371 C165.10942528 170.40836962 166.91356585 171.60211456 168.71984863 172.79260254 C171.32281809 174.51035162 173.91626003 176.24165146 176.5078125 177.9765625 C177.66372391 178.73397232 177.66372391 178.73397232 178.84298706 179.50668335 C184.74024983 183.4875758 189.60922344 187.73469852 192.4375 194.375 C193.4811718 201.10088491 192.84105267 207.23842099 189 213 C183.39253616 218.78790204 178.61493278 221.17006631 170.57421875 221.36328125 C162.90435331 220.28088749 156.95465201 216.2685276 150.7265625 211.9609375 C149.85304642 211.36693649 148.97953033 210.77293549 148.07954407 210.16093445 C146.21765532 208.8936698 144.35826163 207.62273275 142.50119019 206.34841919 C138.6354695 203.69606073 134.75752714 201.06184836 130.87980652 198.42707825 C128.95134101 197.1167212 127.02345101 195.80551677 125.09614563 194.49345398 C117.42507351 189.2743895 109.70780512 184.13242828 101.9375 179.0625 C100.9489502 178.41522949 99.96040039 177.76795898 98.94189453 177.10107422 C96.30463979 175.38429663 93.65640665 173.68695777 91 172 C89.62835693 171.1181604 89.62835693 171.1181604 88.22900391 170.21850586 C86.89554932 169.38331421 86.89554932 169.38331421 85.53515625 168.53125 C84.74633057 168.03302734 83.95750488 167.53480469 83.14477539 167.02148438 C80.86212481 165.69811128 80.86212481 165.69811128 77.5 166.4375 C74.76297015 167.90965916 74.76297015 167.90965916 73 171 C73.11770325 174.5657603 73.34079683 176.35693967 75.92974854 178.88249207 C76.75505066 179.4023317 77.58035278 179.92217133 78.43066406 180.45776367 C79.33884888 181.04552582 80.24703369 181.63328796 81.18273926 182.23886108 C82.1124353 182.82003693 83.04213135 183.40121277 84 184 C85.6528069 185.09621944 87.3035677 186.19553085 88.95214844 187.2980957 C90.67033781 188.42534274 92.38944613 189.55119009 94.109375 190.67578125 C96.0182752 191.92896635 97.92712787 193.18222384 99.8359375 194.43554688 C102.78804037 196.37142818 105.74071691 198.30642289 108.69433594 200.23999023 C127.8281327 212.7715723 127.8281327 212.7715723 136.078125 218.54296875 C137.1187207 219.26895264 138.15931641 219.99493652 139.23144531 220.74291992 C144.98792008 225.43591897 147.86084673 229.78311574 148.90625 237.19140625 C149.11185235 243.35091006 146.9891285 248.07042091 143.25 252.875 C139.09019416 257.28010152 134.58624461 259.11624808 128.5625 259.375 C120.12738752 259.47103544 113.15295848 254.40690123 106.515625 249.8203125 C105.61994812 249.2117038 104.72427124 248.60309509 103.80145264 247.9760437 C100.94558452 246.03345731 98.09752031 244.07979729 95.25 242.125 C88.76413313 237.69436263 82.2714659 233.27381595 75.76586914 228.87219238 C73.90459048 227.6123093 72.04508146 226.34980831 70.18725586 225.08483887 C67.48254911 223.24885146 64.76658884 221.43084694 62.046875 219.6171875 C61.23760559 219.06394806 60.42833618 218.51070862 59.59454346 217.94070435 C55.06605522 214.94987042 51.58464868 213.15459537 46 213 C45.01 213.33 44.02 213.66 43 214 C41.76859705 219.61967279 41.76859705 219.61967279 43 225 C44.66193341 225.67838011 46.32940778 226.34323227 48 227 C49.48893329 227.88868455 50.95146469 228.82274872 52.38793945 229.79394531 C53.2226326 230.35502991 54.05732574 230.9161145 54.91731262 231.49420166 C55.80698227 232.09939636 56.69665192 232.70459106 57.61328125 233.328125 C58.54166306 233.95475037 59.47004486 234.58137573 60.42655945 235.22698975 C62.38898511 236.55291267 64.34987324 237.88111368 66.30932617 239.21142578 C69.28802448 241.23338585 72.27148563 243.24814756 75.25585938 245.26171875 C77.16695327 246.55426384 79.07776956 247.8472195 80.98828125 249.140625 C82.31367668 250.03627167 82.31367668 250.03627167 83.66584778 250.95001221 C101.31481355 262.94444066 101.31481355 262.94444066 104 271 C104.74254909 277.85336291 104.10821132 283.35272426 100 289 C95.79198363 293.7939427 91.38989272 296.42356054 85 297 C77.66676301 297.10006366 71.96948995 293.97965997 66 290 C65.60386903 287.50407707 65.35822098 285.13633459 65.1875 282.625 C64.2383111 273.00878666 61.38487426 264.79512579 54.1875 258 C45.13664734 250.877448 35.30556152 248.98872271 24 250 C21.19198326 250.87935261 18.65922526 251.92227591 16.0234375 253.22265625 C14 254 14 254 11 253 C10.078125 250.375 10.078125 250.375 9.25 247 C6.31883616 236.93927601 1.52676633 231.29216451 -7.5703125 226.19140625 C-12.73381935 223.65946157 -17.05998897 222.63923017 -22.8125 222.375 C-23.85180664 222.31699219 -23.85180664 222.31699219 -24.91210938 222.2578125 C-26.60767015 222.16426432 -28.30379712 222.08107636 -30 222 C-30.15855469 221.02160156 -30.31710938 220.04320312 -30.48046875 219.03515625 C-32.44699345 207.67688082 -35.5258521 198.34842032 -45 191 C-50.44496358 187.6944424 -55.85670109 185.66381012 -62 184 C-61.82210937 182.38544922 -61.82210937 182.38544922 -61.640625 180.73828125 C-60.53169228 169.03527288 -61.11656879 159.0437018 -68.125 149.0625 C-74.03330847 142.15041439 -82.44753592 137.53056879 -91.515625 136.6640625 C-103.81280977 136.53543086 -111.66222838 139.15367801 -121 147 C-121.99 147.83015625 -122.98 148.6603125 -124 149.515625 C-126.24379384 151.40616067 -128.47902488 153.30639774 -130.7109375 155.2109375 C-133.58767028 157.6602509 -136.50324705 160.05720631 -139.4375 162.4375 C-143.8142876 166.01499207 -148.1741971 169.61106257 -152.5 173.25 C-153.09997803 173.74556396 -153.69995605 174.24112793 -154.31811523 174.75170898 C-157.68011269 177.6000879 -159.72129221 180.19289065 -162 184 C-162.99 184 -163.98 184 -165 184 C-165.58007812 182.86820313 -166.16015625 181.73640625 -166.7578125 180.5703125 C-167.54587288 179.08800846 -168.33499119 177.60626652 -169.125 176.125 C-169.50398438 175.37863281 -169.88296875 174.63226563 -170.2734375 173.86328125 C-172.32456887 170.06868821 -173.26820791 168.33389096 -177.3046875 166.4921875 C-178.63886719 166.24855469 -178.63886719 166.24855469 -180 166 C-180.09648055 161.32001905 -179.80021244 157.00051644 -178.98170471 152.3944397 C-178.75596771 151.10731079 -178.53023071 149.82018188 -178.2976532 148.49404907 C-178.04433837 147.08536689 -177.79090107 145.67670672 -177.53735352 144.26806641 C-177.27246417 142.77122786 -177.00809383 141.27429739 -176.74420166 139.77728271 C-176.02863279 135.72717209 -175.30554112 131.67843825 -174.58084607 127.62995195 C-173.82339344 123.39236291 -173.07216055 119.15367096 -172.3200531 114.91513062 C-171.05731367 107.80448714 -169.78978365 100.69471054 -168.51928711 93.58544922 C-167.0488725 85.35723315 -165.58557105 77.12777659 -164.12614685 68.89760458 C-162.72244824 60.9823908 -161.31424292 53.06798568 -159.90379143 45.15397263 C-159.3031363 41.78341308 -158.70398928 38.41259054 -158.10601997 35.0415535 C-157.40300852 31.07973021 -156.69604135 27.11863308 -155.98594666 23.15807343 C-155.72535459 21.70098371 -155.46613103 20.24364851 -155.2083416 18.78606033 C-154.85766612 16.80460512 -154.50163224 14.82410041 -154.14527893 12.84365845 C-153.94709344 11.7327717 -153.74890795 10.62188496 -153.54471684 9.47733498 C-153 7 -153 7 -152 6 C-150.39293279 6.03919676 -148.78771102 6.15911783 -147.1875 6.3125 C-145.87845703 6.43044922 -145.87845703 6.43044922 -144.54296875 6.55078125 C-141 7 -141 7 -138.75671387 7.58216858 C-129.28659064 9.78740332 -120.64097934 8.1919116 -111.21282387 6.61871719 C-108.23988653 6.12265158 -105.26399215 5.64999329 -102.28642273 5.18258667 C-97.02807644 4.35328284 -91.77323771 3.50375479 -86.51922607 2.64746094 C-78.13146341 1.28087139 -69.74097073 -0.06747938 -61.34639549 -1.39157486 C-58.4439661 -1.85432352 -55.54460711 -2.33353584 -52.64509583 -2.81417847 C-34.28719281 -5.7817775 -17.82390939 -6.14617565 0 0 Z " fill="#ffff" transform="translate(236,178)"/>
<path d="M0 0 C2.98205753 0.49770032 5.9668179 0.97474886 8.9530468 1.4467411 C17.42863036 2.78930481 25.89907779 4.16224914 34.36565971 5.56043434 C39.58293208 6.42057078 44.80403552 7.25311838 50.02830124 8.06964493 C51.99483667 8.38256221 53.95977715 8.70570732 55.92279053 9.04000854 C67.1754027 10.95440773 76.75524257 11.69337248 87.93754387 9.06917763 C90.91053963 8.42082976 93.37312529 8.16019667 96.3932476 8.31556129 C97.83213993 12.3816762 98.86707437 16.32579504 99.62081718 20.57067299 C99.95309319 22.42319176 99.95309319 22.42319176 100.29208183 24.31313515 C100.53048749 25.66866368 100.76879602 27.0242093 101.00701714 28.37977028 C101.2630945 29.81762141 101.5195539 31.25540455 101.77636528 32.69312477 C102.47062189 36.58698655 103.1590957 40.48184967 103.84619188 44.37698054 C104.42103016 47.63273202 104.99866397 50.88798496 105.57628143 54.14324433 C106.93917221 61.82438439 108.29734296 69.50634873 109.65252495 77.18885231 C111.04920469 85.10615144 112.45358329 93.02205718 113.86180604 100.93731064 C115.07214505 107.74181068 116.27781338 114.54712691 117.47973144 121.35311943 C118.19695235 125.41423302 118.91589508 129.47502196 119.63928413 133.53504181 C120.3193732 137.35327685 120.99360176 141.17250181 121.66339684 144.99255562 C121.90963909 146.39130284 122.15791184 147.78969442 122.4084034 149.18768692 C122.75106051 151.10195678 123.08553373 153.0176861 123.41964531 154.93346596 C123.60878061 156.00324904 123.79791592 157.07303213 123.99278259 158.17523289 C124.42762557 161.58514317 124.46062724 164.8816784 124.3932476 168.31556129 C123.50379448 168.47798317 122.61434135 168.64040504 121.6979351 168.80774879 C117.03694959 170.9343923 115.77420333 173.99770971 113.5182476 178.44056129 C113.1160601 179.19466286 112.7138726 179.94876442 112.2994976 180.72571754 C111.31366683 182.58001829 110.35111229 184.44666086 109.3932476 186.31556129 C105.97196895 185.17513508 105.75308566 184.6505529 103.8932476 181.75306129 C95.43907642 170.17959246 79.45651945 162.68420799 67.6432476 154.94056129 C63.79371986 152.41278189 59.94508998 149.8836368 56.0963726 147.35462379 C54.71101311 146.44489815 54.71101311 146.44489815 53.29766655 145.5167942 C45.63908616 140.48508395 38.00857784 135.41242537 30.3932476 130.31556129 C29.4032476 129.65556129 28.4132476 128.99556129 27.3932476 128.31556129 C27.3932476 127.65556129 27.3932476 126.99556129 27.3932476 126.31556129 C28.34586479 125.78446754 29.29848198 125.25337379 30.27996635 124.70618629 C31.5470254 123.99287898 32.81394511 123.27932414 34.0807476 122.56556129 C34.70658745 122.21751442 35.33242729 121.86946754 35.97723198 121.51087379 C43.13331787 117.75084858 43.13331787 117.75084858 47.3932476 111.31556129 C47.5872761 108.34688881 47.5872761 108.34688881 46.3932476 105.94056129 C43.38184571 103.49379726 41.19047282 103.98039604 37.3932476 104.31556129 C34.2108333 105.84323394 34.2108333 105.84323394 31.2057476 108.00306129 C14.36054396 119.00415926 -4.4103968 122.66038027 -24.2317524 119.12806129 C-42.74131767 114.97870627 -58.0979261 105.15859362 -68.3567524 89.19056129 C-70.38747099 85.97063239 -72.36568958 82.72138722 -74.3098774 79.44837379 C-75.43503713 77.40834212 -75.43503713 77.40834212 -76.6067524 76.31556129 C-84.12992068 75.98026354 -91.34685984 77.3938229 -98.70392036 78.75696754 C-100.30277356 79.04548241 -101.90483984 79.31673728 -103.50958443 79.57044411 C-113.03898588 80.87469777 -113.03898588 80.87469777 -121.12066841 85.58728981 C-122.88759111 88.09193979 -124.27884935 90.55723127 -125.6067524 93.31556129 C-126.31702583 94.42286598 -127.02729927 95.53017067 -127.75909615 96.67103004 C-128.34819771 97.60560036 -128.93729927 98.54017067 -129.5442524 99.50306129 C-133.59365081 105.58890765 -137.83364746 110.34325644 -144.3567524 113.75306129 C-152.82633315 115.21895027 -159.95677219 115.15820639 -167.54034615 110.78821754 C-172.11505048 107.52798402 -173.72515866 103.95195325 -174.6692524 98.56556129 C-175.15301155 89.08853338 -168.16919242 80.81672664 -163.0442524 73.31556129 C-161.80578515 71.4823536 -160.56750752 69.64901779 -159.32940865 67.81556129 C-158.70953072 66.90161598 -158.08965279 65.98767067 -157.45099068 65.04603004 C-155.67460952 62.41602648 -153.91608 59.77519114 -152.16534615 57.12806129 C-151.62788765 56.31595192 -151.09042915 55.50384254 -150.53668404 54.66712379 C-149.52814502 53.1418847 -148.52075052 51.61588795 -147.51471138 50.08899879 C-146.82937325 49.05645973 -146.82937325 49.05645973 -146.1301899 48.00306129 C-145.73750923 47.40880348 -145.34482857 46.81454567 -144.94024849 46.20228004 C-144.50019478 45.57966286 -144.06014107 44.95704567 -143.6067524 44.31556129 C-143.03521431 43.49072243 -142.46367622 42.66588356 -141.8748188 41.81604958 C-139.18975969 38.85583693 -136.35119162 37.29331727 -132.7942524 35.62024879 C-132.10267036 35.28516304 -131.41108833 34.95007729 -130.69854927 34.60483742 C-120.81664091 29.88733196 -110.69775073 25.68522811 -100.6067524 21.44056129 C-98.50044614 20.55148729 -96.39424557 19.66216287 -94.28814888 18.77259254 C-91.18691181 17.46328071 -88.08533556 16.15480683 -84.98259163 14.8490696 C-79.56587969 12.56928523 -74.15952721 10.26893835 -68.76690865 7.93274879 C-44.88655282 -2.37086563 -25.64553301 -4.29492726 0 0 Z " fill="#ffff" transform="translate(331.6067523956299,175.68443870544434)"/>
<path d="M0 0 C1.21508743 -0.0127597 2.43017487 -0.02551941 3.68208313 -0.03866577 C4.98735458 -0.04089142 6.29262604 -0.04311707 7.63745117 -0.04541016 C9.00119667 -0.0518443 10.36494081 -0.05857312 11.72868347 -0.06558228 C14.58412879 -0.07753628 17.43945331 -0.08126513 20.29492188 -0.08007812 C23.93645103 -0.07987523 27.57719721 -0.10715436 31.21854115 -0.14162254 C34.03516629 -0.1639699 36.85160548 -0.16791327 39.66831017 -0.16685867 C41.65790472 -0.17033666 43.64744123 -0.19195224 45.63691711 -0.21395874 C53.98291764 -0.17202059 59.65674408 0.60024607 66.11010742 6.25537109 C66.64893555 6.90634766 67.18776367 7.55732422 67.74291992 8.22802734 C68.2972168 8.87642578 68.85151367 9.52482422 69.42260742 10.19287109 C72.24960119 14.29583232 73.11852403 17.86145996 73.06323242 22.81005859 C73.05356445 24.34243164 73.05356445 24.34243164 73.04370117 25.90576172 C73.01856445 27.4884082 73.01856445 27.4884082 72.99291992 29.10302734 C72.98389648 30.17746094 72.97487305 31.25189453 72.96557617 32.35888672 C72.94207298 35.00299588 72.90921568 37.64664607 72.86791992 40.29052734 C73.63942383 40.2816449 74.41092773 40.27276245 75.20581055 40.26361084 C82.50249071 40.18321959 89.79895392 40.12243923 97.09596252 40.08327866 C100.84680182 40.06246837 104.59727294 40.03427268 108.34790039 39.98876953 C111.97244854 39.94507484 115.59664419 39.92134099 119.22143555 39.91101837 C120.59925886 39.90366903 121.97706447 39.88931788 123.35473633 39.86760712 C132.48330391 39.72956648 139.01265857 40.03582968 146.11010742 46.25537109 C146.64893555 46.90634766 147.18776367 47.55732422 147.74291992 48.22802734 C148.2972168 48.87642578 148.85151367 49.52482422 149.42260742 50.19287109 C153.72821156 56.44181548 153.2402176 63.07893493 153.23852539 70.36303711 C153.24287197 72.45494686 153.27915116 74.54469706 153.31713867 76.63623047 C153.40586667 87.12652012 151.91825476 95.89256782 144.57104492 103.75927734 C137.47842148 110.13613145 130.30578423 112.61597094 120.86791992 112.29052734 C120.75834961 111.53126953 120.6487793 110.77201172 120.53588867 109.98974609 C120.37733398 108.99587891 120.2187793 108.00201172 120.05541992 106.97802734 C119.90459961 105.99189453 119.7537793 105.00576172 119.59838867 103.98974609 C118.8202075 101.11422102 118.22290648 100.05249065 115.86791992 98.29052734 C110.55587907 96.51984706 104.80783255 97.10461525 99.24438477 97.10522461 C97.00802469 97.10304208 94.77216126 97.08488613 92.53588867 97.06591797 C91.10750494 97.06298295 89.67911886 97.06099888 88.25073242 97.06005859 C86.3077124 97.05389526 86.3077124 97.05389526 84.32543945 97.04760742 C81.00877547 97.28063105 78.79244555 97.74528491 75.86791992 99.29052734 C73.38806766 103.5062762 73.50224575 107.21592068 72.86791992 112.29052734 C41.18791992 112.29052734 9.50791992 112.29052734 -23.13208008 112.29052734 C-24.12208008 106.84552734 -24.12208008 106.84552734 -25.13208008 101.29052734 C-30.277588 96.14501942 -35.65734084 97.12865564 -42.52661133 97.10498047 C-43.26218262 97.10506104 -43.99775391 97.1051416 -44.75561523 97.10522461 C-46.99197531 97.10304208 -49.22783874 97.08488613 -51.46411133 97.06591797 C-52.89249506 97.06298295 -54.32088114 97.06099888 -55.74926758 97.06005859 C-57.04461426 97.05594971 -58.33996094 97.05184082 -59.67456055 97.04760742 C-62.99122453 97.28063105 -65.20755445 97.74528491 -68.13208008 99.29052734 C-70.48572205 103.29171869 -70.67031939 107.74988062 -71.13208008 112.29052734 C-79.41304626 112.90393225 -86.39420323 110.75234893 -92.94458008 105.54052734 C-98.8538385 100.02150297 -102.72970777 92.99929773 -103.42260742 84.890625 C-103.4630914 81.60445744 -103.50344912 78.319131 -103.50268555 75.03271484 C-103.50705477 72.92772215 -103.5434176 70.82483703 -103.58129883 68.72021484 C-103.65654203 59.93506637 -103.13046355 53.85329496 -97.16723633 47.04833984 C-96.51625977 46.50951172 -95.8652832 45.97068359 -95.19458008 45.41552734 C-94.22198242 44.58408203 -94.22198242 44.58408203 -93.22973633 43.73583984 C-88.83271499 40.70623483 -85.07405628 40.04226291 -79.78125 40.06347656 C-77.88985542 40.06370316 -77.88985542 40.06370316 -75.96025085 40.06393433 C-74.59434855 40.07414598 -73.22844788 40.08457795 -71.86254883 40.09521484 C-70.45722149 40.09894794 -69.05189154 40.10179351 -67.64656067 40.10379028 C-63.9590834 40.11140345 -60.27176526 40.13103182 -56.58435059 40.15319824 C-52.81707918 40.17370675 -49.04978191 40.18280268 -45.2824707 40.19287109 C-37.89893485 40.21428009 -30.51552981 40.2483878 -23.13208008 40.29052734 C-23.16350098 39.30826172 -23.16350098 39.30826172 -23.19555664 38.30615234 C-23.27938391 35.30110406 -23.33094903 32.29630271 -23.38208008 29.29052734 C-23.4155957 28.26056641 -23.44911133 27.23060547 -23.48364258 26.16943359 C-23.58310994 18.36124588 -22.45411491 13.08147763 -17.16723633 7.04833984 C-16.51625977 6.50951172 -15.8652832 5.97068359 -15.19458008 5.41552734 C-14.54618164 4.86123047 -13.8977832 4.30693359 -13.22973633 3.73583984 C-8.92658485 0.77091238 -5.1799099 0.03703797 0 0 Z M-5.13208008 19.29052734 C-8.12245522 25.86893772 -8.12245522 25.86893772 -7.13208008 40.29052734 C13.98791992 40.29052734 35.10791992 40.29052734 56.86791992 40.29052734 C58.06048951 25.55763253 58.06048951 25.55763253 53.86791992 18.29052734 C50.57801325 16.41561028 47.73543408 16.03682821 43.98925781 16.01586914 C43.04800552 16.00633713 42.10675323 15.99680511 41.13697815 15.98698425 C40.1316655 15.98789566 39.12635284 15.98880707 38.09057617 15.98974609 C36.52441811 15.98331841 36.52441811 15.98331841 34.92662048 15.97676086 C32.72192102 15.97102651 30.51720264 15.9705107 28.3125 15.97485352 C24.9458783 15.97801284 21.58013614 15.95454465 18.21362305 15.92919922 C16.06844186 15.92692603 13.92325832 15.92622282 11.77807617 15.92724609 C10.77478775 15.91803635 9.77149933 15.9088266 8.73780823 15.89933777 C3.44658196 15.93423589 -0.70393947 16.04652826 -5.13208008 19.29052734 Z " fill="#ffff" transform="translate(231.132080078125,-0.29052734375)"/>
<path d="M0 0 C0.97517578 0.15726563 1.95035156 0.31453125 2.95507812 0.4765625 C6.87207824 1.17554673 9.94023015 1.76152975 13.29296875 3.953125 C16.44615952 9.14661568 15.70255346 14.74911895 14.68902588 20.49853516 C14.56949043 21.19378107 14.44995498 21.88902699 14.32679725 22.60534096 C13.92636307 24.91850296 13.51059408 27.22862936 13.09472656 29.5390625 C12.80327388 31.20343471 12.5127502 32.86796983 12.2230835 34.53265381 C11.4353696 39.04264215 10.63406746 43.55011753 9.82981586 48.05718231 C8.98896688 52.77992955 8.15908256 57.5046047 7.32757568 62.22900391 C5.92946005 70.16249721 4.52253501 78.09439016 3.11035156 86.02539062 C1.47926945 95.18636832 -0.13799451 104.34970324 -1.7478292 113.51443672 C-3.29844183 122.3401976 -4.85873889 131.16421984 -6.42346954 139.98748779 C-7.08841509 143.73795766 -7.74999811 147.48899752 -8.40886688 151.24053955 C-9.18569799 155.66112816 -9.97102156 160.0801267 -10.76284027 164.4980545 C-11.05158301 166.11682611 -11.33744437 167.73611481 -11.62016296 169.3559494 C-12.00755384 171.57261947 -12.40550396 173.78714716 -12.80609131 176.00146484 C-13.02585506 177.23955902 -13.24561882 178.4776532 -13.47204208 179.75326538 C-15.74358827 189.20405885 -15.74358827 189.20405885 -20.3125 192.25 C-26.86579457 192.69031095 -33.06035786 191.65904909 -39.5 190.5 C-40.47130859 190.34273437 -41.44261719 190.18546875 -42.44335938 190.0234375 C-52.45513587 188.23929638 -52.45513587 188.23929638 -55.3125 184.25 C-56.4849568 175.19021761 -54.29954848 165.97775708 -52.69799805 157.08935547 C-52.41636763 155.48673077 -52.13554719 153.88396355 -51.85546875 152.28106689 C-51.09744841 147.95736918 -50.32769805 143.63583811 -49.55535102 139.31467962 C-48.74598625 134.77693558 -47.94631194 130.2374827 -47.1452179 125.69827271 C-45.79911838 118.0797324 -44.44545964 110.4625651 -43.0871582 102.84619141 C-41.51986856 94.05747903 -39.96413158 85.26678203 -38.41466302 76.47491157 C-36.91963242 67.99327754 -35.41684738 59.51303548 -33.91040993 51.03342056 C-33.2712841 47.43520295 -32.63476858 43.8365383 -32.00037193 40.23748398 C-31.25234986 35.99604688 -30.49748994 31.75588085 -29.7374649 27.51657867 C-29.46061817 25.96626398 -29.18604931 24.4155404 -28.91400337 22.86437607 C-26.14939189 7.11819167 -26.14939189 7.11819167 -23.3125 0.25 C-16.78870617 -4.09919589 -7.32571975 -1.32386574 0 0 Z " fill="#ffff" transform="translate(55.3125,159.75)"/>
<path d="M0 0 C4.37177592 4.24897713 5.03793487 8.49895146 5.97045898 14.27026367 C6.13427378 15.2050461 6.29808857 16.13982853 6.46686745 17.1029377 C7.01123729 20.22656643 7.53457062 23.35336779 8.05859375 26.48046875 C8.44418032 28.71205334 8.83146244 30.94334553 9.22032166 33.17436218 C10.05269601 37.95480415 10.87846084 42.7363274 11.7008667 47.51849365 C13.65403257 58.82391618 15.72199159 70.10858515 17.77528763 81.3961525 C19.17784158 89.12347588 20.5642302 96.85371236 21.9523716 104.58363533 C23.13637079 111.17379938 24.32449848 117.76314796 25.5222168 124.35083008 C26.71001645 130.88406271 27.88591141 137.4193665 29.05462456 143.95604515 C29.49442903 146.40496573 29.93811137 148.85319356 30.38597298 151.30065346 C35.63322598 180.00554754 35.63322598 180.00554754 34 186 C30.79396013 189.05686491 28.33007735 190.51047021 23.98046875 191.265625 C22.56991211 191.51699219 22.56991211 191.51699219 21.13085938 191.7734375 C20.15955078 191.93070313 19.18824219 192.08796875 18.1875 192.25 C17.22779297 192.42273438 16.26808594 192.59546875 15.27929688 192.7734375 C9.80558688 193.71499035 4.54380394 194.56108907 -1 194 C-4.42291868 191.26751734 -5.61887008 189.00439571 -6.56034851 184.77485657 C-6.79964773 183.70722391 -7.03894695 182.63959126 -7.28549767 181.53960609 C-8.62414499 174.90801934 -9.85570983 168.26371822 -11.03442383 161.60229492 C-11.32350752 159.98623114 -11.61291501 158.37022526 -11.90261841 156.75427246 C-12.68149011 152.40212452 -13.45471454 148.04899365 -14.22598863 143.69549346 C-14.70861118 140.97155158 -15.19209318 138.24776346 -15.67578697 135.52401161 C-17.19105722 126.98875142 -18.70248868 118.45282337 -20.20886022 109.91598815 C-21.94409137 100.08273404 -23.69253067 90.25194694 -25.45212728 80.42302436 C-26.81519089 72.80429044 -28.16623144 65.18348499 -29.5082323 57.56101304 C-30.30868382 53.01615607 -31.11423874 48.47234652 -31.93247414 43.93065453 C-32.70055426 39.66560197 -33.4536792 35.398175 -34.19545364 31.12847137 C-34.4697767 29.56463501 -34.74944357 28.00172499 -35.03489876 26.43988228 C-35.42444113 24.30387345 -35.79438155 22.16532775 -36.15974426 20.02507019 C-36.37154737 18.83034183 -36.58335047 17.63561346 -36.80157185 16.40468121 C-37.03176353 12.4549932 -36.44291727 9.67476683 -35 6 C-30.22546099 3.18686081 -25.17818838 2.21112903 -19.75 1.3125 C-19.00854736 1.18875 -18.26709473 1.065 -17.50317383 0.9375 C-4.27236972 -1.15346394 -4.27236972 -1.15346394 0 0 Z " fill="#ffff" transform="translate(478,158)"/>
<path d="M0 0 C3.63 2.31 7.26 4.62 11 7 C17.78646263 10.05625915 24.60126178 11.50675079 32 12 C32.10957031 12.83144531 32.21914062 13.66289062 32.33203125 14.51953125 C32.49058594 15.60621094 32.64914063 16.69289062 32.8125 17.8125 C32.96332031 18.89144531 33.11414063 19.97039062 33.26953125 21.08203125 C34.02727938 24.10897164 34.51809671 25.19115523 37 27 C42.31204085 28.77068028 48.06008738 28.18591209 53.62353516 28.18530273 C55.85989524 28.18748526 58.09575867 28.20564121 60.33203125 28.22460938 C61.76041499 28.2275444 63.18880106 28.22952846 64.6171875 28.23046875 C66.56020752 28.23663208 66.56020752 28.23663208 68.54248047 28.24291992 C71.85914445 28.00989629 74.07547437 27.54524243 77 26 C79.47985227 21.78425115 79.36567417 18.07460666 80 13 C111.68 13 143.36 13 176 13 C176.99 18.445 176.99 18.445 178 24 C183.14550793 29.14550793 188.52526077 28.16187171 195.39453125 28.18554688 C196.13010254 28.18546631 196.86567383 28.18538574 197.62353516 28.18530273 C199.85989524 28.18748526 202.09575867 28.20564121 204.33203125 28.22460938 C205.76041499 28.2275444 207.18880106 28.22952846 208.6171875 28.23046875 C210.56020752 28.23663208 210.56020752 28.23663208 212.54248047 28.24291992 C215.85836796 28.00995085 218.07429299 27.54046742 221 26 C223.54240969 21.80502402 223.60297787 16.79560947 224 12 C225.23363281 11.85304688 225.23363281 11.85304688 226.4921875 11.703125 C238.45664896 10.10049506 245.70706261 6.86195826 256 0 C256 17.82 256 35.64 256 54 C245.9967327 52.82314502 236.09136104 51.63172445 226.16015625 50.0546875 C223.83668632 49.69598063 221.51311539 49.33792752 219.18945312 48.98046875 C215.62369049 48.42940302 212.05873892 47.87440228 208.49536133 47.30810547 C183.9616262 43.42200774 163.30723361 42.12141666 139.8515625 51.5 C139.22813965 51.73895996 138.6047168 51.97791992 137.96240234 52.22412109 C136.58152221 52.77008241 135.21793176 53.36083048 133.86962891 53.98291016 C129.44280848 55.83218651 126.70735235 56.29785418 122.1328125 54.6484375 C120.45175386 53.91714635 118.78249124 53.15824178 117.125 52.375 C115.36508044 51.60654336 113.6033699 50.84217465 111.83984375 50.08203125 C111.00437012 49.7154541 110.16889648 49.34887695 109.30810547 48.97119141 C86.74985134 39.47925837 62.14018628 44.96866632 38.9385376 48.63562012 C33.55247143 49.48392021 28.16309015 50.31095062 22.77401733 51.13989258 C19.91731508 51.57931739 17.06166966 52.02483249 14.20669556 52.4753418 C12.92370575 52.67554932 11.64071594 52.87575684 10.31884766 53.08203125 C8.62823715 53.34850464 8.62823715 53.34850464 6.9034729 53.62036133 C4 54 4 54 0 54 C0 36.18 0 18.36 0 0 Z " fill="#ffff" transform="translate(128,115)"/>
<path d="M0 0 C5.66176936 2.62867863 8.83538304 6.29540065 11.390625 11.96484375 C13.50815602 18.13128023 12.54431219 23.81795816 10.203125 29.77734375 C4.92428163 37.89570936 -4.10185008 43.92552576 -11.55078125 49.9375 C-14.10066242 52.01556642 -16.6114977 54.12874301 -19.11132812 56.26611328 C-21.86741562 58.62006406 -24.6408687 60.95290886 -27.421875 63.27734375 C-28.02531738 63.78185059 -28.62875977 64.28635742 -29.25048828 64.80615234 C-31.0885608 66.33105393 -32.94020497 67.83766741 -34.796875 69.33984375 C-35.35544189 69.80503418 -35.91400879 70.27022461 -36.48950195 70.74951172 C-41.60020129 74.8329081 -46.79900564 76.81521033 -53.359375 76.21484375 C-59.54874079 75.37768029 -64.02598348 73.18039479 -68.02734375 68.33203125 C-71.75067371 62.51237266 -72.44227141 57.05641297 -71.421875 50.27734375 C-68.88328243 39.41216754 -55.46865568 31.19152088 -47.26171875 24.5859375 C-44.7024789 22.50545504 -42.18812536 20.38471976 -39.68310547 18.23999023 C-13.61875253 -4.06366003 -13.61875253 -4.06366003 0 0 Z " fill="#ffff" transform="translate(178.421875,377.72265625)"/>
<path d="M0 0 C5.09824493 2.95776042 9.38995564 7.38896104 11.16015625 13.10546875 C12.39465222 19.55228105 11.77662288 25.4063783 8.546875 31.125 C4.39829592 36.39641387 -1.17592443 40.43049735 -6.37109375 44.609375 C-9.74709741 47.36494706 -13.03695544 50.20693979 -16.328125 53.0625 C-21.00695544 57.10136883 -25.75413332 61.02688742 -30.640625 64.8125 C-31.18122559 65.2345874 -31.72182617 65.6566748 -32.27880859 66.09155273 C-38.56562392 70.90047483 -44.74295186 70.93611751 -52.453125 70.125 C-57.62864943 68.16998215 -61.4923093 64.7939786 -64.453125 60.125 C-67.10493084 54.15843686 -67.3261624 48.23949283 -65.390625 42.0625 C-62.16463769 34.4212213 -54.74083463 29.62101909 -48.46875 24.57421875 C-45.84629605 22.44432416 -43.26884354 20.27611171 -40.70336914 18.07885742 C-13.82522365 -4.93128996 -13.82522365 -4.93128996 0 0 Z " fill="#ffff" transform="translate(149.453125,329.875)"/>
<path d="M0 0 C4.08114891 3.79038003 6.62186519 8.05846295 7.3359375 13.61328125 C7.44879135 21.41148261 6.39817143 26.48834604 0.89453125 32.17578125 C-1.67266168 34.53890479 -4.30651578 36.78206031 -7 39 C-7.87140625 39.72058594 -8.7428125 40.44117188 -9.640625 41.18359375 C-11.44192782 42.66097808 -13.24938032 44.13089207 -15.0625 45.59375 C-17.19424359 47.33996549 -19.29264479 49.1031197 -21.375 50.90625 C-22.23291138 51.64609131 -22.23291138 51.64609131 -23.1081543 52.40087891 C-24.21296042 53.35644679 -25.31366521 54.31678545 -26.40942383 55.28271484 C-32.37517787 60.4268719 -38.1048866 63.2211152 -46 63 C-52.15293093 61.78942335 -57.38557278 59.55183698 -61.1875 54.38671875 C-64.67340453 48.54056636 -64.74372055 42.64641407 -64 36 C-61.2810458 27.16339885 -52.00597642 21.06284719 -45.07421875 15.50390625 C-40.9527381 12.14702048 -36.9432712 8.6654918 -32.94677734 5.16113281 C-23.14039171 -3.34663844 -11.77376242 -8.52221111 0 0 Z " fill="#ffff" transform="translate(280,446)"/>
<path d="M0 0 C4.66616086 4.61835183 6.54829402 9.42851171 6.875 15.9375 C6.03811395 24.72480352 1.57930793 30.35165686 -4.87890625 35.9296875 C-6.71934809 37.43526001 -8.57021517 38.92815173 -10.4296875 40.41015625 C-13.73813504 43.06617457 -16.96326036 45.80575171 -20.1875 48.5625 C-35.31779505 61.39516621 -35.31779505 61.39516621 -43.875 62.1875 C-51.1169973 61.56318989 -56.37976387 58.99523613 -61.5 53.875 C-65.69530852 48.2812553 -65.10649485 41.55498557 -64.5 34.875 C-61.81949168 26.36044417 -53.30137758 20.79354524 -46.609375 15.4140625 C-42.46453455 12.06217142 -38.45461266 8.55039749 -34.44702148 5.03637695 C-24.21233471 -3.84317384 -12.01049407 -9.64813587 0 0 Z " fill="#ffff" transform="translate(226.5,419.125)"/>
<path d="M0 0 C0.66 0 1.32 0 2 0 C3.92817527 5.7845258 3.48491959 11.45014754 1.1875 17.0390625 C-1.59472668 21.63339734 -5.9251264 25.30837547 -11 27 C-13.1649902 27.09485782 -15.33293823 27.12988077 -17.5 27.125 C-18.6446875 27.12757813 -19.789375 27.13015625 -20.96875 27.1328125 C-24 27 -24 27 -27 26 C-25.66714203 22.97548473 -24.28613451 21.10738325 -21.76953125 18.9765625 C-20.81143555 18.15671875 -20.81143555 18.15671875 -19.83398438 17.3203125 C-19.16689453 16.76085937 -18.49980469 16.20140625 -17.8125 15.625 C-17.16474609 15.07328125 -16.51699219 14.5215625 -15.84960938 13.953125 C-14.55108399 12.84788661 -13.24917643 11.74660906 -11.94384766 10.64941406 C-10.62436148 9.52978977 -9.31702483 8.39571948 -8.02099609 7.24902344 C-7.08827881 6.4257959 -7.08827881 6.4257959 -6.13671875 5.5859375 C-5.58072998 5.08884277 -5.02474121 4.59174805 -4.4519043 4.07958984 C-3 3 -3 3 -1 3 C-0.67 2.01 -0.34 1.02 0 0 Z " fill="#ffff" transform="translate(293,485)"/>
<path d="M0 0 C5.28 0 10.56 0 16 0 C16 5.28 16 10.56 16 16 C10.72 16 5.44 16 0 16 C0 10.72 0 5.44 0 0 Z " fill="#ffff" transform="translate(320,112)"/>
<path d="M0 0 C5.28 0 10.56 0 16 0 C16 5.28 16 10.56 16 16 C10.72 16 5.44 16 0 16 C0 10.72 0 5.44 0 0 Z " fill="#ffff" transform="translate(176,112)"/>
</svg>
